<mxfile host="Electron" modified="2023-06-03T06:28:17.353Z" agent="Mozilla/5.0 (Windows NT 10.0; Win64; x64) AppleWebKit/537.36 (KHTML, like Gecko) draw.io/21.2.8 Chrome/112.0.5615.165 Electron/24.2.0 Safari/537.36" etag="UsFd4MwQxcJtU_itkzOm" version="21.2.8" type="device">
  <diagram name="Page-1" id="fSrDXZoW2g8xjnLIFRmO">
    <mxGraphModel dx="2398" dy="956" grid="1" gridSize="10" guides="1" tooltips="1" connect="1" arrows="1" fold="1" page="1" pageScale="1" pageWidth="827" pageHeight="1169" math="0" shadow="0">
      <root>
        <mxCell id="0" />
        <mxCell id="1" parent="0" />
        <mxCell id="JFFTyxlVnd-TsSzQu8PM-2" value="person" style="swimlane;fontStyle=1;align=center;verticalAlign=top;childLayout=stackLayout;horizontal=1;startSize=26;horizontalStack=0;resizeParent=1;resizeParentMax=0;resizeLast=0;collapsible=1;marginBottom=0;whiteSpace=wrap;html=1;fillColor=#1ba1e2;strokeColor=#006EAF;fontColor=#ffffff;" parent="1" vertex="1">
          <mxGeometry x="390" y="200" width="160" height="130" as="geometry" />
        </mxCell>
        <mxCell id="JFFTyxlVnd-TsSzQu8PM-3" value="- name:string&lt;br&gt;- email:string&lt;br&gt;- password:string" style="text;strokeColor=none;fillColor=none;align=left;verticalAlign=top;spacingLeft=4;spacingRight=4;overflow=hidden;rotatable=0;points=[[0,0.5],[1,0.5]];portConstraint=eastwest;whiteSpace=wrap;html=1;" parent="JFFTyxlVnd-TsSzQu8PM-2" vertex="1">
          <mxGeometry y="26" width="160" height="54" as="geometry" />
        </mxCell>
        <mxCell id="JFFTyxlVnd-TsSzQu8PM-4" value="" style="line;strokeWidth=1;fillColor=none;align=left;verticalAlign=middle;spacingTop=-1;spacingLeft=3;spacingRight=3;rotatable=0;labelPosition=right;points=[];portConstraint=eastwest;strokeColor=inherit;" parent="JFFTyxlVnd-TsSzQu8PM-2" vertex="1">
          <mxGeometry y="80" width="160" height="8" as="geometry" />
        </mxCell>
        <mxCell id="JFFTyxlVnd-TsSzQu8PM-5" value="+ login()&lt;br style=&quot;border-color: var(--border-color);&quot;&gt;+ logout()" style="text;strokeColor=none;fillColor=none;align=left;verticalAlign=top;spacingLeft=4;spacingRight=4;overflow=hidden;rotatable=0;points=[[0,0.5],[1,0.5]];portConstraint=eastwest;whiteSpace=wrap;html=1;" parent="JFFTyxlVnd-TsSzQu8PM-2" vertex="1">
          <mxGeometry y="88" width="160" height="42" as="geometry" />
        </mxCell>
        <mxCell id="JFFTyxlVnd-TsSzQu8PM-11" value="super_admin" style="swimlane;fontStyle=1;align=center;verticalAlign=top;childLayout=stackLayout;horizontal=1;startSize=26;horizontalStack=0;resizeParent=1;resizeParentMax=0;resizeLast=0;collapsible=1;marginBottom=0;whiteSpace=wrap;html=1;fillColor=#dae8fc;strokeColor=#6c8ebf;" parent="1" vertex="1">
          <mxGeometry x="390" y="390" width="160" height="90" as="geometry" />
        </mxCell>
        <mxCell id="JFFTyxlVnd-TsSzQu8PM-12" value="- wallet:double" style="text;strokeColor=none;fillColor=none;align=left;verticalAlign=top;spacingLeft=4;spacingRight=4;overflow=hidden;rotatable=0;points=[[0,0.5],[1,0.5]];portConstraint=eastwest;whiteSpace=wrap;html=1;" parent="JFFTyxlVnd-TsSzQu8PM-11" vertex="1">
          <mxGeometry y="26" width="160" height="26" as="geometry" />
        </mxCell>
        <mxCell id="JFFTyxlVnd-TsSzQu8PM-13" value="" style="line;strokeWidth=1;fillColor=none;align=left;verticalAlign=middle;spacingTop=-1;spacingLeft=3;spacingRight=3;rotatable=0;labelPosition=right;points=[];portConstraint=eastwest;strokeColor=inherit;" parent="JFFTyxlVnd-TsSzQu8PM-11" vertex="1">
          <mxGeometry y="52" width="160" height="8" as="geometry" />
        </mxCell>
        <mxCell id="JFFTyxlVnd-TsSzQu8PM-14" value="+ addAdmin()" style="text;strokeColor=none;fillColor=none;align=left;verticalAlign=top;spacingLeft=4;spacingRight=4;overflow=hidden;rotatable=0;points=[[0,0.5],[1,0.5]];portConstraint=eastwest;whiteSpace=wrap;html=1;" parent="JFFTyxlVnd-TsSzQu8PM-11" vertex="1">
          <mxGeometry y="60" width="160" height="30" as="geometry" />
        </mxCell>
        <mxCell id="JFFTyxlVnd-TsSzQu8PM-15" value="user" style="swimlane;fontStyle=1;align=center;verticalAlign=top;childLayout=stackLayout;horizontal=1;startSize=26;horizontalStack=0;resizeParent=1;resizeParentMax=0;resizeLast=0;collapsible=1;marginBottom=0;whiteSpace=wrap;html=1;fillColor=#dae8fc;strokeColor=#6c8ebf;" parent="1" vertex="1">
          <mxGeometry x="940" y="638" width="160" height="210" as="geometry" />
        </mxCell>
        <mxCell id="JFFTyxlVnd-TsSzQu8PM-16" value="&lt;span style=&quot;&quot;&gt;- phone_number:string&lt;/span&gt;&lt;br style=&quot;border-color: var(--border-color); padding: 0px; margin: 0px;&quot;&gt;&lt;span style=&quot;&quot;&gt;- profile_img_url:text&lt;/span&gt;&lt;br style=&quot;border-color: var(--border-color); padding: 0px; margin: 0px;&quot;&gt;&lt;span style=&quot;&quot;&gt;- address:string&lt;/span&gt;" style="text;strokeColor=none;fillColor=none;align=left;verticalAlign=top;spacingLeft=4;spacingRight=4;overflow=hidden;rotatable=0;points=[[0,0.5],[1,0.5]];portConstraint=eastwest;whiteSpace=wrap;html=1;" parent="JFFTyxlVnd-TsSzQu8PM-15" vertex="1">
          <mxGeometry y="26" width="160" height="54" as="geometry" />
        </mxCell>
        <mxCell id="JFFTyxlVnd-TsSzQu8PM-17" value="" style="line;strokeWidth=1;fillColor=none;align=left;verticalAlign=middle;spacingTop=-1;spacingLeft=3;spacingRight=3;rotatable=0;labelPosition=right;points=[];portConstraint=eastwest;strokeColor=inherit;" parent="JFFTyxlVnd-TsSzQu8PM-15" vertex="1">
          <mxGeometry y="80" width="160" height="8" as="geometry" />
        </mxCell>
        <mxCell id="JFFTyxlVnd-TsSzQu8PM-18" value="&lt;div&gt;+ userRegister()&lt;/div&gt;&lt;div&gt;+ forgetPassword()&lt;/div&gt;&lt;div&gt;+ checkCode()&lt;/div&gt;&lt;div&gt;+ setPassword()&lt;/div&gt;&lt;div&gt;+ getUsers()&lt;/div&gt;&lt;div&gt;+ userProfile()&lt;/div&gt;&lt;div&gt;+ usersCount()&lt;/div&gt;" style="text;strokeColor=none;fillColor=none;align=left;verticalAlign=top;spacingLeft=4;spacingRight=4;overflow=hidden;rotatable=0;points=[[0,0.5],[1,0.5]];portConstraint=eastwest;whiteSpace=wrap;html=1;" parent="JFFTyxlVnd-TsSzQu8PM-15" vertex="1">
          <mxGeometry y="88" width="160" height="122" as="geometry" />
        </mxCell>
        <mxCell id="JFFTyxlVnd-TsSzQu8PM-21" value="admin" style="swimlane;fontStyle=1;align=center;verticalAlign=top;childLayout=stackLayout;horizontal=1;startSize=26;horizontalStack=0;resizeParent=1;resizeParentMax=0;resizeLast=0;collapsible=1;marginBottom=0;whiteSpace=wrap;html=1;fillColor=#dae8fc;strokeColor=#6c8ebf;" parent="1" vertex="1">
          <mxGeometry x="120" y="360" width="230" height="220" as="geometry" />
        </mxCell>
        <mxCell id="JFFTyxlVnd-TsSzQu8PM-22" value="- phone_number:string&lt;br style=&quot;border-color: var(--border-color); padding: 0px; margin: 0px;&quot;&gt;&lt;span style=&quot;&quot;&gt;- profile_img_url:text&lt;/span&gt;&lt;br style=&quot;border-color: var(--border-color); padding: 0px; margin: 0px;&quot;&gt;&lt;span style=&quot;&quot;&gt;- logo:text&lt;/span&gt;&lt;br style=&quot;border-color: var(--border-color); padding: 0px; margin: 0px;&quot;&gt;&lt;span style=&quot;&quot;&gt;- wallet:double&lt;/span&gt;&lt;br style=&quot;border-color: var(--border-color); padding: 0px; margin: 0px;&quot;&gt;&lt;span style=&quot;&quot;&gt;- description:string&lt;br&gt;- state:boolean&lt;br&gt;- addresses:string&lt;br&gt;&lt;/span&gt;" style="text;strokeColor=none;fillColor=none;align=left;verticalAlign=top;spacingLeft=4;spacingRight=4;overflow=hidden;rotatable=0;points=[[0,0.5],[1,0.5]];portConstraint=eastwest;whiteSpace=wrap;html=1;" parent="JFFTyxlVnd-TsSzQu8PM-21" vertex="1">
          <mxGeometry y="26" width="230" height="114" as="geometry" />
        </mxCell>
        <mxCell id="JFFTyxlVnd-TsSzQu8PM-23" value="" style="line;strokeWidth=1;fillColor=none;align=left;verticalAlign=middle;spacingTop=-1;spacingLeft=3;spacingRight=3;rotatable=0;labelPosition=right;points=[];portConstraint=eastwest;strokeColor=inherit;" parent="JFFTyxlVnd-TsSzQu8PM-21" vertex="1">
          <mxGeometry y="140" width="230" height="8" as="geometry" />
        </mxCell>
        <mxCell id="JFFTyxlVnd-TsSzQu8PM-24" value="+ getAllAdmins()&lt;br&gt;+ adminProfile()&lt;br&gt;+ adminCount()&lt;br&gt;+ getAdminWallet()" style="text;strokeColor=none;fillColor=none;align=left;verticalAlign=top;spacingLeft=4;spacingRight=4;overflow=hidden;rotatable=0;points=[[0,0.5],[1,0.5]];portConstraint=eastwest;whiteSpace=wrap;html=1;" parent="JFFTyxlVnd-TsSzQu8PM-21" vertex="1">
          <mxGeometry y="148" width="230" height="72" as="geometry" />
        </mxCell>
        <mxCell id="JFFTyxlVnd-TsSzQu8PM-25" value="Extends" style="endArrow=block;endSize=16;endFill=0;html=1;rounded=0;entryX=0;entryY=0.25;entryDx=0;entryDy=0;exitX=0.5;exitY=0;exitDx=0;exitDy=0;" parent="1" source="JFFTyxlVnd-TsSzQu8PM-21" target="JFFTyxlVnd-TsSzQu8PM-2" edge="1">
          <mxGeometry width="160" relative="1" as="geometry">
            <mxPoint x="150" y="240" as="sourcePoint" />
            <mxPoint x="310" y="240" as="targetPoint" />
          </mxGeometry>
        </mxCell>
        <mxCell id="JFFTyxlVnd-TsSzQu8PM-26" value="Extends" style="endArrow=block;endSize=16;endFill=0;html=1;rounded=0;exitX=0.5;exitY=0;exitDx=0;exitDy=0;entryX=0.502;entryY=0.955;entryDx=0;entryDy=0;entryPerimeter=0;" parent="1" source="JFFTyxlVnd-TsSzQu8PM-11" target="JFFTyxlVnd-TsSzQu8PM-5" edge="1">
          <mxGeometry width="160" relative="1" as="geometry">
            <mxPoint x="130" y="320" as="sourcePoint" />
            <mxPoint x="290" y="320" as="targetPoint" />
          </mxGeometry>
        </mxCell>
        <mxCell id="JFFTyxlVnd-TsSzQu8PM-27" value="Extends" style="endArrow=block;endSize=16;endFill=0;html=1;rounded=0;entryX=0.994;entryY=0.019;entryDx=0;entryDy=0;exitX=0.5;exitY=0;exitDx=0;exitDy=0;entryPerimeter=0;" parent="1" source="JFFTyxlVnd-TsSzQu8PM-15" target="JFFTyxlVnd-TsSzQu8PM-3" edge="1">
          <mxGeometry width="160" relative="1" as="geometry">
            <mxPoint x="590" y="310" as="sourcePoint" />
            <mxPoint x="750" y="310" as="targetPoint" />
          </mxGeometry>
        </mxCell>
        <mxCell id="JFFTyxlVnd-TsSzQu8PM-28" value="product" style="swimlane;fontStyle=1;align=center;verticalAlign=top;childLayout=stackLayout;horizontal=1;startSize=26;horizontalStack=0;resizeParent=1;resizeParentMax=0;resizeLast=0;collapsible=1;marginBottom=0;whiteSpace=wrap;html=1;fillColor=#e1d5e7;strokeColor=#9673a6;" parent="1" vertex="1">
          <mxGeometry x="170" y="690" width="160" height="300" as="geometry" />
        </mxCell>
        <mxCell id="JFFTyxlVnd-TsSzQu8PM-29" value="- admin_id:integer&lt;br&gt;- category_id:integer&lt;br style=&quot;border-color: var(--border-color); padding: 0px; margin: 0px;&quot;&gt;&lt;span style=&quot;&quot;&gt;- name:string&lt;/span&gt;&lt;br style=&quot;border-color: var(--border-color); padding: 0px; margin: 0px;&quot;&gt;- price:float&lt;span style=&quot;&quot;&gt;&lt;/span&gt;&lt;br style=&quot;border-color: var(--border-color); padding: 0px; margin: 0px;&quot;&gt;&lt;span style=&quot;&quot;&gt;- description:text&lt;/span&gt;&lt;br style=&quot;border-color: var(--border-color); padding: 0px; margin: 0px;&quot;&gt;&lt;span style=&quot;&quot;&gt;- have_discount:boolean&lt;/span&gt;&lt;br style=&quot;border-color: var(--border-color); padding: 0px; margin: 0px;&quot;&gt;&lt;span style=&quot;&quot;&gt;- product_quantity:integer&lt;/span&gt;&lt;br style=&quot;border-color: var(--border-color); padding: 0px; margin: 0px;&quot;&gt;&lt;span style=&quot;&quot;&gt;- sales_count:integer&lt;/span&gt;&lt;br style=&quot;border-color: var(--border-color); padding: 0px; margin: 0px;&quot;&gt;&lt;span style=&quot;&quot;&gt;- approved:boolean&lt;br&gt;- product_tags:string&lt;span style=&quot;white-space: pre;&quot;&gt; &lt;/span&gt;&lt;br&gt;- product_images:text&lt;br&gt;&lt;br&gt;&lt;/span&gt;" style="text;align=left;verticalAlign=top;spacingLeft=4;spacingRight=4;overflow=hidden;rotatable=0;points=[[0,0.5],[1,0.5]];portConstraint=eastwest;whiteSpace=wrap;html=1;" parent="JFFTyxlVnd-TsSzQu8PM-28" vertex="1">
          <mxGeometry y="26" width="160" height="174" as="geometry" />
        </mxCell>
        <mxCell id="JFFTyxlVnd-TsSzQu8PM-30" value="" style="line;strokeWidth=1;fillColor=none;align=left;verticalAlign=middle;spacingTop=-1;spacingLeft=3;spacingRight=3;rotatable=0;labelPosition=right;points=[];portConstraint=eastwest;strokeColor=inherit;" parent="JFFTyxlVnd-TsSzQu8PM-28" vertex="1">
          <mxGeometry y="200" width="160" height="8" as="geometry" />
        </mxCell>
        <mxCell id="JFFTyxlVnd-TsSzQu8PM-31" value="&lt;div&gt;+ delete_product()&lt;/div&gt;&lt;div&gt;+ product_profile()&lt;/div&gt;&lt;div&gt;+ get_all_products()&lt;/div&gt;&lt;div&gt;+ aprove_product()&lt;/div&gt;&lt;div&gt;+ get_pending_products()&lt;/div&gt;&lt;div&gt;+ discount()&lt;/div&gt;" style="text;strokeColor=none;fillColor=none;align=left;verticalAlign=top;spacingLeft=4;spacingRight=4;overflow=hidden;rotatable=0;points=[[0,0.5],[1,0.5]];portConstraint=eastwest;whiteSpace=wrap;html=1;" parent="JFFTyxlVnd-TsSzQu8PM-28" vertex="1">
          <mxGeometry y="208" width="160" height="92" as="geometry" />
        </mxCell>
        <mxCell id="JFFTyxlVnd-TsSzQu8PM-32" value="cart" style="swimlane;fontStyle=1;align=center;verticalAlign=top;childLayout=stackLayout;horizontal=1;startSize=26;horizontalStack=0;resizeParent=1;resizeParentMax=0;resizeLast=0;collapsible=1;marginBottom=0;whiteSpace=wrap;html=1;fillColor=#e1d5e7;strokeColor=#9673a6;" parent="1" vertex="1">
          <mxGeometry x="440" y="520" width="160" height="160" as="geometry" />
        </mxCell>
        <mxCell id="JFFTyxlVnd-TsSzQu8PM-33" value="- user_id:integer&lt;br&gt;- product_id:integer&lt;br&gt;- cart&lt;br&gt;- quantity:integer&lt;br style=&quot;border-color: var(--border-color);&quot;&gt;&lt;span style=&quot;&quot;&gt;- priceOfType:double&lt;/span&gt;" style="text;strokeColor=none;fillColor=none;align=left;verticalAlign=top;spacingLeft=4;spacingRight=4;overflow=hidden;rotatable=0;points=[[0,0.5],[1,0.5]];portConstraint=eastwest;whiteSpace=wrap;html=1;" parent="JFFTyxlVnd-TsSzQu8PM-32" vertex="1">
          <mxGeometry y="26" width="160" height="84" as="geometry" />
        </mxCell>
        <mxCell id="JFFTyxlVnd-TsSzQu8PM-34" value="" style="line;strokeWidth=1;fillColor=none;align=left;verticalAlign=middle;spacingTop=-1;spacingLeft=3;spacingRight=3;rotatable=0;labelPosition=right;points=[];portConstraint=eastwest;strokeColor=inherit;" parent="JFFTyxlVnd-TsSzQu8PM-32" vertex="1">
          <mxGeometry y="110" width="160" height="8" as="geometry" />
        </mxCell>
        <mxCell id="JFFTyxlVnd-TsSzQu8PM-35" value="+ addToCart()&lt;br&gt;+ removeFromCart()" style="text;strokeColor=none;fillColor=none;align=left;verticalAlign=top;spacingLeft=4;spacingRight=4;overflow=hidden;rotatable=0;points=[[0,0.5],[1,0.5]];portConstraint=eastwest;whiteSpace=wrap;html=1;" parent="JFFTyxlVnd-TsSzQu8PM-32" vertex="1">
          <mxGeometry y="118" width="160" height="42" as="geometry" />
        </mxCell>
        <mxCell id="JFFTyxlVnd-TsSzQu8PM-36" value="" style="endArrow=diamondThin;endFill=1;endSize=24;html=1;rounded=0;entryX=0;entryY=0.5;entryDx=0;entryDy=0;exitX=1.022;exitY=0.905;exitDx=0;exitDy=0;exitPerimeter=0;" parent="1" source="JFFTyxlVnd-TsSzQu8PM-33" target="JFFTyxlVnd-TsSzQu8PM-18" edge="1">
          <mxGeometry width="160" relative="1" as="geometry">
            <mxPoint x="430" y="560" as="sourcePoint" />
            <mxPoint x="590" y="560" as="targetPoint" />
          </mxGeometry>
        </mxCell>
        <mxCell id="JFFTyxlVnd-TsSzQu8PM-37" value="rate" style="swimlane;fontStyle=1;align=center;verticalAlign=top;childLayout=stackLayout;horizontal=1;startSize=26;horizontalStack=0;resizeParent=1;resizeParentMax=0;resizeLast=0;collapsible=1;marginBottom=0;whiteSpace=wrap;html=1;fillColor=#e1d5e7;strokeColor=#9673a6;" parent="1" vertex="1">
          <mxGeometry x="440" y="690" width="160" height="128" as="geometry" />
        </mxCell>
        <mxCell id="JFFTyxlVnd-TsSzQu8PM-38" value="- user_id:integer&lt;br style=&quot;border-color: var(--border-color);&quot;&gt;- product_id:integer&lt;br&gt;- rate:integer" style="text;strokeColor=none;fillColor=none;align=left;verticalAlign=top;spacingLeft=4;spacingRight=4;overflow=hidden;rotatable=0;points=[[0,0.5],[1,0.5]];portConstraint=eastwest;whiteSpace=wrap;html=1;" parent="JFFTyxlVnd-TsSzQu8PM-37" vertex="1">
          <mxGeometry y="26" width="160" height="54" as="geometry" />
        </mxCell>
        <mxCell id="JFFTyxlVnd-TsSzQu8PM-39" value="" style="line;strokeWidth=1;fillColor=none;align=left;verticalAlign=middle;spacingTop=-1;spacingLeft=3;spacingRight=3;rotatable=0;labelPosition=right;points=[];portConstraint=eastwest;strokeColor=inherit;" parent="JFFTyxlVnd-TsSzQu8PM-37" vertex="1">
          <mxGeometry y="80" width="160" height="8" as="geometry" />
        </mxCell>
        <mxCell id="JFFTyxlVnd-TsSzQu8PM-40" value="+ addRate()&lt;br&gt;+ showRate()" style="text;strokeColor=none;fillColor=none;align=left;verticalAlign=top;spacingLeft=4;spacingRight=4;overflow=hidden;rotatable=0;points=[[0,0.5],[1,0.5]];portConstraint=eastwest;whiteSpace=wrap;html=1;" parent="JFFTyxlVnd-TsSzQu8PM-37" vertex="1">
          <mxGeometry y="88" width="160" height="40" as="geometry" />
        </mxCell>
        <mxCell id="JFFTyxlVnd-TsSzQu8PM-41" value="comments" style="swimlane;fontStyle=1;align=center;verticalAlign=top;childLayout=stackLayout;horizontal=1;startSize=26;horizontalStack=0;resizeParent=1;resizeParentMax=0;resizeLast=0;collapsible=1;marginBottom=0;whiteSpace=wrap;html=1;fillColor=#e1d5e7;strokeColor=#9673a6;" parent="1" vertex="1">
          <mxGeometry x="440" y="830" width="160" height="140" as="geometry" />
        </mxCell>
        <mxCell id="JFFTyxlVnd-TsSzQu8PM-42" value="- user_id:integer&lt;br style=&quot;border-color: var(--border-color);&quot;&gt;- product_id:integer&lt;br&gt;- comment:text" style="text;strokeColor=none;fillColor=none;align=left;verticalAlign=top;spacingLeft=4;spacingRight=4;overflow=hidden;rotatable=0;points=[[0,0.5],[1,0.5]];portConstraint=eastwest;whiteSpace=wrap;html=1;" parent="JFFTyxlVnd-TsSzQu8PM-41" vertex="1">
          <mxGeometry y="26" width="160" height="54" as="geometry" />
        </mxCell>
        <mxCell id="JFFTyxlVnd-TsSzQu8PM-43" value="" style="line;strokeWidth=1;fillColor=none;align=left;verticalAlign=middle;spacingTop=-1;spacingLeft=3;spacingRight=3;rotatable=0;labelPosition=right;points=[];portConstraint=eastwest;strokeColor=inherit;" parent="JFFTyxlVnd-TsSzQu8PM-41" vertex="1">
          <mxGeometry y="80" width="160" height="8" as="geometry" />
        </mxCell>
        <mxCell id="JFFTyxlVnd-TsSzQu8PM-44" value="+ addComment()&lt;br&gt;+ deleteComment()&lt;br&gt;+ getProductComments()" style="text;strokeColor=none;fillColor=none;align=left;verticalAlign=top;spacingLeft=4;spacingRight=4;overflow=hidden;rotatable=0;points=[[0,0.5],[1,0.5]];portConstraint=eastwest;whiteSpace=wrap;html=1;" parent="JFFTyxlVnd-TsSzQu8PM-41" vertex="1">
          <mxGeometry y="88" width="160" height="52" as="geometry" />
        </mxCell>
        <mxCell id="JFFTyxlVnd-TsSzQu8PM-45" value="" style="endArrow=diamondThin;endFill=1;endSize=24;html=1;rounded=0;entryX=0;entryY=0.5;entryDx=0;entryDy=0;exitX=1;exitY=0.5;exitDx=0;exitDy=0;" parent="1" source="JFFTyxlVnd-TsSzQu8PM-38" target="JFFTyxlVnd-TsSzQu8PM-18" edge="1">
          <mxGeometry width="160" relative="1" as="geometry">
            <mxPoint x="630" y="580" as="sourcePoint" />
            <mxPoint x="790" y="580" as="targetPoint" />
          </mxGeometry>
        </mxCell>
        <mxCell id="JFFTyxlVnd-TsSzQu8PM-46" value="" style="endArrow=diamondThin;endFill=1;endSize=24;html=1;rounded=0;entryX=0;entryY=0.5;entryDx=0;entryDy=0;exitX=1;exitY=0.5;exitDx=0;exitDy=0;" parent="1" source="JFFTyxlVnd-TsSzQu8PM-42" target="JFFTyxlVnd-TsSzQu8PM-18" edge="1">
          <mxGeometry width="160" relative="1" as="geometry">
            <mxPoint x="800" y="560" as="sourcePoint" />
            <mxPoint x="960" y="560" as="targetPoint" />
          </mxGeometry>
        </mxCell>
        <mxCell id="JFFTyxlVnd-TsSzQu8PM-47" value="category" style="swimlane;fontStyle=1;align=center;verticalAlign=top;childLayout=stackLayout;horizontal=1;startSize=26;horizontalStack=0;resizeParent=1;resizeParentMax=0;resizeLast=0;collapsible=1;marginBottom=0;whiteSpace=wrap;html=1;fillColor=#e1d5e7;strokeColor=#9673a6;" parent="1" vertex="1">
          <mxGeometry x="-160" y="690" width="230" height="200" as="geometry" />
        </mxCell>
        <mxCell id="JFFTyxlVnd-TsSzQu8PM-48" value="- category_id:integer&lt;br style=&quot;border-color: var(--border-color); padding: 0px; margin: 0px;&quot;&gt;&lt;span style=&quot;&quot;&gt;- parent_id:integer&lt;/span&gt;&lt;br style=&quot;border-color: var(--border-color); padding: 0px; margin: 0px;&quot;&gt;&lt;span style=&quot;&quot;&gt;- name:string&lt;/span&gt;&lt;br style=&quot;border-color: var(--border-color); padding: 0px; margin: 0px;&quot;&gt;&lt;span style=&quot;&quot;&gt;- image:text&lt;/span&gt;" style="text;strokeColor=none;fillColor=none;align=left;verticalAlign=top;spacingLeft=4;spacingRight=4;overflow=hidden;rotatable=0;points=[[0,0.5],[1,0.5]];portConstraint=eastwest;whiteSpace=wrap;html=1;" parent="JFFTyxlVnd-TsSzQu8PM-47" vertex="1">
          <mxGeometry y="26" width="230" height="74" as="geometry" />
        </mxCell>
        <mxCell id="JFFTyxlVnd-TsSzQu8PM-49" value="" style="line;strokeWidth=1;fillColor=none;align=left;verticalAlign=middle;spacingTop=-1;spacingLeft=3;spacingRight=3;rotatable=0;labelPosition=right;points=[];portConstraint=eastwest;strokeColor=inherit;" parent="JFFTyxlVnd-TsSzQu8PM-47" vertex="1">
          <mxGeometry y="100" width="230" height="8" as="geometry" />
        </mxCell>
        <mxCell id="JFFTyxlVnd-TsSzQu8PM-50" value="&lt;div&gt;+create_category()&lt;/div&gt;&lt;div&gt;+get_category()&lt;/div&gt;&lt;div&gt;+delete_category()&lt;/div&gt;&lt;div&gt;+edit_category()&lt;/div&gt;&lt;div&gt;+get_Categories_WithProductsForAdmin()&lt;br&gt;&lt;/div&gt;" style="text;strokeColor=none;fillColor=none;align=left;verticalAlign=top;spacingLeft=4;spacingRight=4;overflow=hidden;rotatable=0;points=[[0,0.5],[1,0.5]];portConstraint=eastwest;whiteSpace=wrap;html=1;" parent="JFFTyxlVnd-TsSzQu8PM-47" vertex="1">
          <mxGeometry y="108" width="230" height="92" as="geometry" />
        </mxCell>
        <mxCell id="JFFTyxlVnd-TsSzQu8PM-51" value="" style="endArrow=diamondThin;endFill=1;endSize=24;html=1;rounded=0;entryX=1.003;entryY=0.023;entryDx=0;entryDy=0;exitX=-0.006;exitY=0.213;exitDx=0;exitDy=0;exitPerimeter=0;entryPerimeter=0;" parent="1" source="JFFTyxlVnd-TsSzQu8PM-29" target="JFFTyxlVnd-TsSzQu8PM-49" edge="1">
          <mxGeometry width="160" relative="1" as="geometry">
            <mxPoint x="-210" y="680" as="sourcePoint" />
            <mxPoint x="-50" y="680" as="targetPoint" />
          </mxGeometry>
        </mxCell>
        <mxCell id="JFFTyxlVnd-TsSzQu8PM-52" value="" style="endArrow=diamondThin;endFill=1;endSize=24;html=1;rounded=0;entryX=0.557;entryY=1.024;entryDx=0;entryDy=0;entryPerimeter=0;exitX=0.5;exitY=0;exitDx=0;exitDy=0;" parent="1" source="JFFTyxlVnd-TsSzQu8PM-28" target="JFFTyxlVnd-TsSzQu8PM-24" edge="1">
          <mxGeometry width="160" relative="1" as="geometry">
            <mxPoint x="-60" y="720" as="sourcePoint" />
            <mxPoint x="100" y="720" as="targetPoint" />
          </mxGeometry>
        </mxCell>
        <mxCell id="JFFTyxlVnd-TsSzQu8PM-53" value="size" style="swimlane;fontStyle=1;align=center;verticalAlign=top;childLayout=stackLayout;horizontal=1;startSize=26;horizontalStack=0;resizeParent=1;resizeParentMax=0;resizeLast=0;collapsible=1;marginBottom=0;whiteSpace=wrap;html=1;fillColor=#e1d5e7;strokeColor=#9673a6;" parent="1" vertex="1">
          <mxGeometry x="-200" y="1040" width="160" height="100" as="geometry" />
        </mxCell>
        <mxCell id="JFFTyxlVnd-TsSzQu8PM-54" value="- size:string" style="text;strokeColor=none;fillColor=none;align=left;verticalAlign=top;spacingLeft=4;spacingRight=4;overflow=hidden;rotatable=0;points=[[0,0.5],[1,0.5]];portConstraint=eastwest;whiteSpace=wrap;html=1;" parent="JFFTyxlVnd-TsSzQu8PM-53" vertex="1">
          <mxGeometry y="26" width="160" height="26" as="geometry" />
        </mxCell>
        <mxCell id="JFFTyxlVnd-TsSzQu8PM-55" value="" style="line;strokeWidth=1;fillColor=none;align=left;verticalAlign=middle;spacingTop=-1;spacingLeft=3;spacingRight=3;rotatable=0;labelPosition=right;points=[];portConstraint=eastwest;strokeColor=inherit;" parent="JFFTyxlVnd-TsSzQu8PM-53" vertex="1">
          <mxGeometry y="52" width="160" height="8" as="geometry" />
        </mxCell>
        <mxCell id="JFFTyxlVnd-TsSzQu8PM-56" value="+ addSize()&lt;br&gt;+ getSizes()" style="text;strokeColor=none;fillColor=none;align=left;verticalAlign=top;spacingLeft=4;spacingRight=4;overflow=hidden;rotatable=0;points=[[0,0.5],[1,0.5]];portConstraint=eastwest;whiteSpace=wrap;html=1;" parent="JFFTyxlVnd-TsSzQu8PM-53" vertex="1">
          <mxGeometry y="60" width="160" height="40" as="geometry" />
        </mxCell>
        <mxCell id="JFFTyxlVnd-TsSzQu8PM-57" value="color" style="swimlane;fontStyle=1;align=center;verticalAlign=top;childLayout=stackLayout;horizontal=1;startSize=26;horizontalStack=0;resizeParent=1;resizeParentMax=0;resizeLast=0;collapsible=1;marginBottom=0;whiteSpace=wrap;html=1;fillColor=#e1d5e7;strokeColor=#9673a6;" parent="1" vertex="1">
          <mxGeometry x="254" y="1040" width="160" height="120" as="geometry" />
        </mxCell>
        <mxCell id="JFFTyxlVnd-TsSzQu8PM-58" value="- color:string&lt;br&gt;- hex:string" style="text;strokeColor=none;fillColor=none;align=left;verticalAlign=top;spacingLeft=4;spacingRight=4;overflow=hidden;rotatable=0;points=[[0,0.5],[1,0.5]];portConstraint=eastwest;whiteSpace=wrap;html=1;" parent="JFFTyxlVnd-TsSzQu8PM-57" vertex="1">
          <mxGeometry y="26" width="160" height="44" as="geometry" />
        </mxCell>
        <mxCell id="JFFTyxlVnd-TsSzQu8PM-59" value="" style="line;strokeWidth=1;fillColor=none;align=left;verticalAlign=middle;spacingTop=-1;spacingLeft=3;spacingRight=3;rotatable=0;labelPosition=right;points=[];portConstraint=eastwest;strokeColor=inherit;" parent="JFFTyxlVnd-TsSzQu8PM-57" vertex="1">
          <mxGeometry y="70" width="160" height="8" as="geometry" />
        </mxCell>
        <mxCell id="JFFTyxlVnd-TsSzQu8PM-60" value="+ addColor()&lt;br&gt;+ getColors()" style="text;strokeColor=none;fillColor=none;align=left;verticalAlign=top;spacingLeft=4;spacingRight=4;overflow=hidden;rotatable=0;points=[[0,0.5],[1,0.5]];portConstraint=eastwest;whiteSpace=wrap;html=1;" parent="JFFTyxlVnd-TsSzQu8PM-57" vertex="1">
          <mxGeometry y="78" width="160" height="42" as="geometry" />
        </mxCell>
        <mxCell id="JFFTyxlVnd-TsSzQu8PM-61" value="variant" style="swimlane;fontStyle=1;align=center;verticalAlign=top;childLayout=stackLayout;horizontal=1;startSize=26;horizontalStack=0;resizeParent=1;resizeParentMax=0;resizeLast=0;collapsible=1;marginBottom=0;whiteSpace=wrap;html=1;fillColor=#e1d5e7;strokeColor=#9673a6;" parent="1" vertex="1">
          <mxGeometry x="30" y="1040" width="160" height="108" as="geometry" />
        </mxCell>
        <mxCell id="JFFTyxlVnd-TsSzQu8PM-62" value="- color_id:integer&lt;br&gt;- size_id:integer&lt;br&gt;- product_id:integer&lt;br&gt;- variantQuantity" style="text;strokeColor=none;fillColor=none;align=left;verticalAlign=top;spacingLeft=4;spacingRight=4;overflow=hidden;rotatable=0;points=[[0,0.5],[1,0.5]];portConstraint=eastwest;whiteSpace=wrap;html=1;" parent="JFFTyxlVnd-TsSzQu8PM-61" vertex="1">
          <mxGeometry y="26" width="160" height="74" as="geometry" />
        </mxCell>
        <mxCell id="JFFTyxlVnd-TsSzQu8PM-63" value="" style="line;strokeWidth=1;fillColor=none;align=left;verticalAlign=middle;spacingTop=-1;spacingLeft=3;spacingRight=3;rotatable=0;labelPosition=right;points=[];portConstraint=eastwest;strokeColor=inherit;" parent="JFFTyxlVnd-TsSzQu8PM-61" vertex="1">
          <mxGeometry y="100" width="160" height="8" as="geometry" />
        </mxCell>
        <mxCell id="JFFTyxlVnd-TsSzQu8PM-65" value="" style="endArrow=diamondThin;endFill=1;endSize=24;html=1;rounded=0;entryX=0.486;entryY=1.027;entryDx=0;entryDy=0;entryPerimeter=0;" parent="1" target="JFFTyxlVnd-TsSzQu8PM-31" edge="1">
          <mxGeometry width="160" relative="1" as="geometry">
            <mxPoint x="190" y="1040" as="sourcePoint" />
            <mxPoint x="200" y="970" as="targetPoint" />
          </mxGeometry>
        </mxCell>
        <mxCell id="JFFTyxlVnd-TsSzQu8PM-66" value="" style="endArrow=block;startArrow=block;endFill=1;startFill=1;html=1;rounded=0;entryX=0;entryY=0.5;entryDx=0;entryDy=0;exitX=1.028;exitY=0.889;exitDx=0;exitDy=0;exitPerimeter=0;" parent="1" source="JFFTyxlVnd-TsSzQu8PM-54" target="JFFTyxlVnd-TsSzQu8PM-62" edge="1">
          <mxGeometry width="160" relative="1" as="geometry">
            <mxPoint x="20" y="1130" as="sourcePoint" />
            <mxPoint x="180" y="1130" as="targetPoint" />
          </mxGeometry>
        </mxCell>
        <mxCell id="JFFTyxlVnd-TsSzQu8PM-67" value="" style="endArrow=block;startArrow=block;endFill=1;startFill=1;html=1;rounded=0;exitX=1;exitY=0.5;exitDx=0;exitDy=0;entryX=0;entryY=0.5;entryDx=0;entryDy=0;" parent="1" source="JFFTyxlVnd-TsSzQu8PM-62" target="JFFTyxlVnd-TsSzQu8PM-58" edge="1">
          <mxGeometry width="160" relative="1" as="geometry">
            <mxPoint x="310" y="1130" as="sourcePoint" />
            <mxPoint x="470" y="1130" as="targetPoint" />
          </mxGeometry>
        </mxCell>
        <mxCell id="JFFTyxlVnd-TsSzQu8PM-70" value="favorites" style="swimlane;fontStyle=1;align=center;verticalAlign=top;childLayout=stackLayout;horizontal=1;startSize=26;horizontalStack=0;resizeParent=1;resizeParentMax=0;resizeLast=0;collapsible=1;marginBottom=0;whiteSpace=wrap;html=1;fillColor=#e1d5e7;strokeColor=#9673a6;" parent="1" vertex="1">
          <mxGeometry x="440" y="980" width="160" height="130" as="geometry" />
        </mxCell>
        <mxCell id="JFFTyxlVnd-TsSzQu8PM-71" value="- user_id:integer&lt;br style=&quot;border-color: var(--border-color);&quot;&gt;- product_id:integer" style="text;strokeColor=none;fillColor=none;align=left;verticalAlign=top;spacingLeft=4;spacingRight=4;overflow=hidden;rotatable=0;points=[[0,0.5],[1,0.5]];portConstraint=eastwest;whiteSpace=wrap;html=1;" parent="JFFTyxlVnd-TsSzQu8PM-70" vertex="1">
          <mxGeometry y="26" width="160" height="44" as="geometry" />
        </mxCell>
        <mxCell id="JFFTyxlVnd-TsSzQu8PM-72" value="" style="line;strokeWidth=1;fillColor=none;align=left;verticalAlign=middle;spacingTop=-1;spacingLeft=3;spacingRight=3;rotatable=0;labelPosition=right;points=[];portConstraint=eastwest;strokeColor=inherit;" parent="JFFTyxlVnd-TsSzQu8PM-70" vertex="1">
          <mxGeometry y="70" width="160" height="8" as="geometry" />
        </mxCell>
        <mxCell id="JFFTyxlVnd-TsSzQu8PM-73" value="+ addToFavorite()&lt;br&gt;+ removeFromFavorites()&lt;br&gt;+ getAllFavorites()" style="text;strokeColor=none;fillColor=none;align=left;verticalAlign=top;spacingLeft=4;spacingRight=4;overflow=hidden;rotatable=0;points=[[0,0.5],[1,0.5]];portConstraint=eastwest;whiteSpace=wrap;html=1;" parent="JFFTyxlVnd-TsSzQu8PM-70" vertex="1">
          <mxGeometry y="78" width="160" height="52" as="geometry" />
        </mxCell>
        <mxCell id="JFFTyxlVnd-TsSzQu8PM-74" value="" style="endArrow=diamondThin;endFill=1;endSize=24;html=1;rounded=0;exitX=1;exitY=0.5;exitDx=0;exitDy=0;entryX=0;entryY=0.5;entryDx=0;entryDy=0;" parent="1" source="JFFTyxlVnd-TsSzQu8PM-71" target="JFFTyxlVnd-TsSzQu8PM-18" edge="1">
          <mxGeometry width="160" relative="1" as="geometry">
            <mxPoint x="850" y="500" as="sourcePoint" />
            <mxPoint x="1010" y="500" as="targetPoint" />
          </mxGeometry>
        </mxCell>
        <mxCell id="JFFTyxlVnd-TsSzQu8PM-77" value="" style="endArrow=diamondThin;endFill=1;endSize=24;html=1;rounded=0;exitX=0;exitY=0.5;exitDx=0;exitDy=0;entryX=1;entryY=0.5;entryDx=0;entryDy=0;" parent="1" source="JFFTyxlVnd-TsSzQu8PM-33" target="JFFTyxlVnd-TsSzQu8PM-29" edge="1">
          <mxGeometry width="160" relative="1" as="geometry">
            <mxPoint x="280" y="810" as="sourcePoint" />
            <mxPoint x="440" y="810" as="targetPoint" />
          </mxGeometry>
        </mxCell>
        <mxCell id="JFFTyxlVnd-TsSzQu8PM-78" value="" style="endArrow=diamondThin;endFill=1;endSize=24;html=1;rounded=0;entryX=1;entryY=0.5;entryDx=0;entryDy=0;exitX=0;exitY=0.5;exitDx=0;exitDy=0;" parent="1" source="JFFTyxlVnd-TsSzQu8PM-38" target="JFFTyxlVnd-TsSzQu8PM-29" edge="1">
          <mxGeometry width="160" relative="1" as="geometry">
            <mxPoint x="250" y="790" as="sourcePoint" />
            <mxPoint x="410" y="790" as="targetPoint" />
          </mxGeometry>
        </mxCell>
        <mxCell id="JFFTyxlVnd-TsSzQu8PM-79" value="" style="endArrow=diamondThin;endFill=1;endSize=24;html=1;rounded=0;exitX=0;exitY=0.5;exitDx=0;exitDy=0;entryX=1;entryY=0.5;entryDx=0;entryDy=0;" parent="1" source="JFFTyxlVnd-TsSzQu8PM-42" target="JFFTyxlVnd-TsSzQu8PM-29" edge="1">
          <mxGeometry width="160" relative="1" as="geometry">
            <mxPoint x="270" y="840" as="sourcePoint" />
            <mxPoint x="340" y="810" as="targetPoint" />
          </mxGeometry>
        </mxCell>
        <mxCell id="JFFTyxlVnd-TsSzQu8PM-80" value="" style="endArrow=diamondThin;endFill=1;endSize=24;html=1;rounded=0;exitX=0;exitY=0.5;exitDx=0;exitDy=0;entryX=1;entryY=0.5;entryDx=0;entryDy=0;" parent="1" source="JFFTyxlVnd-TsSzQu8PM-71" target="JFFTyxlVnd-TsSzQu8PM-29" edge="1">
          <mxGeometry width="160" relative="1" as="geometry">
            <mxPoint x="360" y="1000" as="sourcePoint" />
            <mxPoint x="520" y="1000" as="targetPoint" />
          </mxGeometry>
        </mxCell>
        <mxCell id="JFFTyxlVnd-TsSzQu8PM-82" value="order" style="swimlane;fontStyle=1;align=center;verticalAlign=top;childLayout=stackLayout;horizontal=1;startSize=26;horizontalStack=0;resizeParent=1;resizeParentMax=0;resizeLast=0;collapsible=1;marginBottom=0;whiteSpace=wrap;html=1;fillColor=#e1d5e7;strokeColor=#9673a6;" parent="1" vertex="1">
          <mxGeometry x="690" y="534" width="160" height="114" as="geometry" />
        </mxCell>
        <mxCell id="JFFTyxlVnd-TsSzQu8PM-83" value="- user_id:integer&lt;br style=&quot;border-color: var(--border-color);&quot;&gt;&lt;span style=&quot;&quot;&gt;- cart_id:integer&lt;/span&gt;&lt;br style=&quot;border-color: var(--border-color);&quot;&gt;&lt;span style=&quot;&quot;&gt;- price_of_cart:double&lt;/span&gt;" style="text;strokeColor=none;fillColor=none;align=left;verticalAlign=top;spacingLeft=4;spacingRight=4;overflow=hidden;rotatable=0;points=[[0,0.5],[1,0.5]];portConstraint=eastwest;whiteSpace=wrap;html=1;" parent="JFFTyxlVnd-TsSzQu8PM-82" vertex="1">
          <mxGeometry y="26" width="160" height="54" as="geometry" />
        </mxCell>
        <mxCell id="JFFTyxlVnd-TsSzQu8PM-84" value="" style="line;strokeWidth=1;fillColor=none;align=left;verticalAlign=middle;spacingTop=-1;spacingLeft=3;spacingRight=3;rotatable=0;labelPosition=right;points=[];portConstraint=eastwest;strokeColor=inherit;" parent="JFFTyxlVnd-TsSzQu8PM-82" vertex="1">
          <mxGeometry y="80" width="160" height="8" as="geometry" />
        </mxCell>
        <mxCell id="JFFTyxlVnd-TsSzQu8PM-85" value="+ getOrders()" style="text;strokeColor=none;fillColor=none;align=left;verticalAlign=top;spacingLeft=4;spacingRight=4;overflow=hidden;rotatable=0;points=[[0,0.5],[1,0.5]];portConstraint=eastwest;whiteSpace=wrap;html=1;" parent="JFFTyxlVnd-TsSzQu8PM-82" vertex="1">
          <mxGeometry y="88" width="160" height="26" as="geometry" />
        </mxCell>
        <mxCell id="JFFTyxlVnd-TsSzQu8PM-86" value="" style="endArrow=diamondThin;endFill=1;endSize=24;html=1;rounded=0;entryX=1;entryY=0.5;entryDx=0;entryDy=0;exitX=0;exitY=0.5;exitDx=0;exitDy=0;" parent="1" source="JFFTyxlVnd-TsSzQu8PM-83" target="JFFTyxlVnd-TsSzQu8PM-33" edge="1">
          <mxGeometry width="160" relative="1" as="geometry">
            <mxPoint x="460" y="530" as="sourcePoint" />
            <mxPoint x="620" y="530" as="targetPoint" />
          </mxGeometry>
        </mxCell>
        <mxCell id="JFFTyxlVnd-TsSzQu8PM-87" value="" style="endArrow=diamondThin;endFill=1;endSize=24;html=1;rounded=0;exitX=-0.009;exitY=0.088;exitDx=0;exitDy=0;exitPerimeter=0;entryX=1;entryY=0.5;entryDx=0;entryDy=0;" parent="1" source="JFFTyxlVnd-TsSzQu8PM-15" target="JFFTyxlVnd-TsSzQu8PM-83" edge="1">
          <mxGeometry width="160" relative="1" as="geometry">
            <mxPoint x="650" y="690" as="sourcePoint" />
            <mxPoint x="810" y="690" as="targetPoint" />
          </mxGeometry>
        </mxCell>
        <mxCell id="CRDAOy-FQNHrs7_zMkSl-1" value="ad" style="swimlane;fontStyle=1;align=center;verticalAlign=top;childLayout=stackLayout;horizontal=1;startSize=26;horizontalStack=0;resizeParent=1;resizeParentMax=0;resizeLast=0;collapsible=1;marginBottom=0;whiteSpace=wrap;html=1;fillColor=#e1d5e7;strokeColor=#9673a6;" parent="1" vertex="1">
          <mxGeometry x="-120" y="400" width="160" height="110" as="geometry" />
        </mxCell>
        <mxCell id="CRDAOy-FQNHrs7_zMkSl-2" value="- admin_id&lt;br&gt;- image_ad" style="text;strokeColor=none;fillColor=none;align=left;verticalAlign=top;spacingLeft=4;spacingRight=4;overflow=hidden;rotatable=0;points=[[0,0.5],[1,0.5]];portConstraint=eastwest;whiteSpace=wrap;html=1;" parent="CRDAOy-FQNHrs7_zMkSl-1" vertex="1">
          <mxGeometry y="26" width="160" height="34" as="geometry" />
        </mxCell>
        <mxCell id="CRDAOy-FQNHrs7_zMkSl-3" value="" style="line;strokeWidth=1;fillColor=none;align=left;verticalAlign=middle;spacingTop=-1;spacingLeft=3;spacingRight=3;rotatable=0;labelPosition=right;points=[];portConstraint=eastwest;strokeColor=inherit;" parent="CRDAOy-FQNHrs7_zMkSl-1" vertex="1">
          <mxGeometry y="60" width="160" height="8" as="geometry" />
        </mxCell>
        <mxCell id="CRDAOy-FQNHrs7_zMkSl-4" value="+ createAdd()&lt;br&gt;+ deleteAdd()" style="text;strokeColor=none;fillColor=none;align=left;verticalAlign=top;spacingLeft=4;spacingRight=4;overflow=hidden;rotatable=0;points=[[0,0.5],[1,0.5]];portConstraint=eastwest;whiteSpace=wrap;html=1;" parent="CRDAOy-FQNHrs7_zMkSl-1" vertex="1">
          <mxGeometry y="68" width="160" height="42" as="geometry" />
        </mxCell>
        <mxCell id="CRDAOy-FQNHrs7_zMkSl-6" value="" style="endArrow=diamondThin;endFill=1;endSize=24;html=1;rounded=0;entryX=0;entryY=0.5;entryDx=0;entryDy=0;exitX=1;exitY=0.5;exitDx=0;exitDy=0;" parent="1" source="CRDAOy-FQNHrs7_zMkSl-2" target="JFFTyxlVnd-TsSzQu8PM-22" edge="1">
          <mxGeometry width="160" relative="1" as="geometry">
            <mxPoint x="-60" y="410" as="sourcePoint" />
            <mxPoint x="100" y="410" as="targetPoint" />
          </mxGeometry>
        </mxCell>
      </root>
    </mxGraphModel>
  </diagram>
</mxfile>
